<svg width="8" height="11" viewBox="0 0 8 11" fill="none" xmlns="http://www.w3.org/2000/svg">
<path fill-rule="evenodd" clip-rule="evenodd" d="M4 10.4C2.93912 10.4 1.92187 9.95614 1.17182 9.16667C0.421765 8.37709 6.83157e-07 7.30567 5.85556e-07 6.18925C0.000176882 4.66782 0.834598 3.23505 1.62195 2.20404C2.19018 1.46646 2.82647 0.788701 3.52011 0.181659C3.65488 0.0645927 3.82512 2.51605e-05 4 2.51452e-05C4.17488 2.51299e-05 4.34418 0.0645927 4.47896 0.181659C5.17273 0.788783 5.80886 1.46642 6.37712 2.20404C7.16447 3.23457 7.99982 4.66788 8 6.18925C8 7.30567 7.57824 8.37709 6.82818 9.16667C6.07813 9.95614 5.06088 10.4 4 10.4ZM4 8.99773C4.70693 8.99773 5.38506 8.7018 5.88514 8.1755C6.38527 7.64901 6.66636 6.93403 6.66636 6.18925C6.66617 5.1662 6.08059 4.0542 5.33922 3.08292C4.93002 2.55342 4.48116 2.05979 4 1.6025C3.51866 2.05996 3.07011 2.55418 2.66078 3.08389C1.91958 4.05506 1.33383 5.16637 1.33364 6.18925C1.33364 6.93403 1.61473 7.64901 2.11486 8.1755C2.61494 8.7018 3.29307 8.99773 4 8.99773Z" fill="#251E1B"/>
<path fill-rule="evenodd" clip-rule="evenodd" d="M5.88514 8.1755C5.38506 8.7018 4.70693 8.99773 4 8.99773C3.29307 8.99773 2.61494 8.7018 2.11486 8.1755C1.61473 7.64901 1.33364 6.93403 1.33364 6.18925C1.33383 5.16637 1.91958 4.05506 2.66078 3.08389C3.07011 2.55418 3.51866 2.05996 4 1.6025C4.48116 2.05979 4.93002 2.55342 5.33922 3.08292C6.08059 4.0542 6.66617 5.1662 6.66636 6.18925C6.66636 6.93403 6.38527 7.64901 5.88514 8.1755Z" fill="#251E1B"/>
</svg>
