<svg width="20" height="20" viewBox="0 0 20 20" fill="none" xmlns="http://www.w3.org/2000/svg">
<path d="M8.98567 15.69C10.3113 15.6913 11.6077 15.2998 12.711 14.5649C13.8143 13.83 14.6752 12.7847 15.1848 11.5609C15.6942 10.3369 15.8286 8.98928 15.5709 7.68886C15.3132 6.38844 14.675 5.19388 13.7373 4.25671C12.8002 3.31917 11.6062 2.68047 10.3062 2.42134C9.00624 2.16221 7.6586 2.29428 6.43365 2.80085C5.20869 3.30742 4.16139 4.16576 3.42413 5.26739C2.68686 6.36901 2.29271 7.66447 2.2915 8.99004C2.2915 10.7659 2.9965 12.4684 4.2515 13.7242C5.5069 14.9801 7.20906 15.6871 8.98484 15.69M13.7398 13.7425L17.7082 17.7084" stroke="#FAF7F1" stroke-width="1.5" stroke-linecap="round" stroke-linejoin="round"/>
</svg>
