<svg width="17" height="19" viewBox="0 0 17 19" fill="none" xmlns="http://www.w3.org/2000/svg">
<path d="M1.37516 16.2125C2.37516 17.4167 4.23516 17.4167 7.95683 17.4167H8.55683C12.2785 17.4167 14.1393 17.4167 15.1393 16.2125M1.37516 16.2125C0.37516 15.0075 0.718493 13.1792 1.40433 9.52087C1.89183 6.92087 2.13516 5.62004 3.06099 4.85171M15.1393 16.2125C16.1393 15.0075 15.796 13.1792 15.1102 9.52087C14.6227 6.92087 14.3785 5.62004 13.4527 4.85171M13.4527 4.85171C12.5277 4.08337 11.2035 4.08337 8.55766 4.08337H7.95599C5.31016 4.08337 3.98683 4.08337 3.06099 4.85171" stroke="#FAF7F1" stroke-width="1.5"/>
<path d="M5.75684 4.08333V3.25C5.75684 2.58696 6.02023 1.95107 6.48907 1.48223C6.95791 1.01339 7.59379 0.75 8.25684 0.75C8.91988 0.75 9.55576 1.01339 10.0246 1.48223C10.4934 1.95107 10.7568 2.58696 10.7568 3.25V4.08333" stroke="#FAF7F1" stroke-width="1.5" stroke-linecap="round"/>
</svg>
